<svg width="18" height="17" viewBox="0 0 18 17" fill="none" xmlns="http://www.w3.org/2000/svg">
<path d="M12.8374 4.24746H12.8452M4.66437 0.772217H12.4482C14.5976 0.772217 16.3401 2.50102 16.3401 4.6336V12.3564C16.3401 14.489 14.5976 16.2178 12.4482 16.2178H4.66437C2.51493 16.2178 0.772461 14.489 0.772461 12.3564V4.6336C0.772461 2.50102 2.51493 0.772217 4.66437 0.772217ZM11.6698 8.00845C11.7659 8.65118 11.6552 9.30759 11.3536 9.88433C11.052 10.4611 10.5747 10.9288 9.98977 11.2209C9.4048 11.513 8.74189 11.6147 8.09531 11.5115C7.44874 11.4082 6.85144 11.1054 6.38836 10.6459C5.92529 10.1865 5.62002 9.59384 5.51597 8.95234C5.41193 8.31084 5.51442 7.65313 5.80885 7.07274C6.10328 6.49236 6.57467 6.01887 7.15596 5.71961C7.73726 5.42035 8.39886 5.31057 9.04666 5.40588C9.70745 5.5031 10.3192 5.80859 10.7916 6.27725C11.2639 6.7459 11.5718 7.35285 11.6698 8.00845Z" stroke="#1E1E1E" stroke-width="1.54455" stroke-linecap="round" stroke-linejoin="round"/>
</svg>
