<svg width="18" height="17" viewBox="0 0 18 17" fill="none" xmlns="http://www.w3.org/2000/svg">
<path d="M12.8371 4.24746H12.8449M4.66413 0.772217H12.4479C14.5974 0.772217 16.3399 2.50102 16.3399 4.6336V12.3564C16.3399 14.489 14.5974 16.2178 12.4479 16.2178H4.66413C2.51468 16.2178 0.772217 14.489 0.772217 12.3564V4.6336C0.772217 2.50102 2.51468 0.772217 4.66413 0.772217ZM11.6696 8.00845C11.7656 8.65118 11.655 9.30759 11.3534 9.88433C11.0517 10.4611 10.5745 10.9288 9.98953 11.2209C9.40456 11.513 8.74164 11.6147 8.09507 11.5115C7.4485 11.4082 6.8512 11.1054 6.38812 10.6459C5.92504 10.1865 5.61977 9.59384 5.51573 8.95234C5.41169 8.31084 5.51417 7.65313 5.8086 7.07274C6.10304 6.49236 6.57442 6.01887 7.15572 5.71961C7.73701 5.42035 8.39861 5.31057 9.04642 5.40588C9.70721 5.5031 10.319 5.80859 10.7913 6.27725C11.2637 6.7459 11.5716 7.35285 11.6696 8.00845Z" stroke="#1E1E1E" stroke-width="1.54455" stroke-linecap="round" stroke-linejoin="round"/>
</svg>
