<svg width="18" height="17" viewBox="0 0 18 17" fill="none" xmlns="http://www.w3.org/2000/svg">
<path d="M12.8372 4.24746H12.845M4.66419 0.772217H12.448C14.5975 0.772217 16.3399 2.50102 16.3399 4.6336V12.3564C16.3399 14.489 14.5975 16.2178 12.448 16.2178H4.66419C2.51475 16.2178 0.772278 14.489 0.772278 12.3564V4.6336C0.772278 2.50102 2.51475 0.772217 4.66419 0.772217ZM11.6696 8.00845C11.7657 8.65118 11.655 9.30759 11.3534 9.88433C11.0518 10.4611 10.5746 10.9288 9.98959 11.2209C9.40462 11.513 8.7417 11.6147 8.09513 11.5115C7.44856 11.4082 6.85126 11.1054 6.38818 10.6459C5.9251 10.1865 5.61983 9.59384 5.51579 8.95234C5.41175 8.31084 5.51423 7.65313 5.80866 7.07274C6.1031 6.49236 6.57448 6.01887 7.15578 5.71961C7.73707 5.42035 8.39868 5.31057 9.04648 5.40588C9.70727 5.5031 10.319 5.80859 10.7914 6.27725C11.2637 6.7459 11.5716 7.35285 11.6696 8.00845Z" stroke="#1E1E1E" stroke-width="1.54455" stroke-linecap="round" stroke-linejoin="round"/>
</svg>
